<?xml version="1.0" encoding="UTF-8" standalone="no"?>
<!-- Created with Inkscape (http://www.inkscape.org/) -->

<svg
   xmlns:dc="http://purl.org/dc/elements/1.1/"
   xmlns:cc="http://creativecommons.org/ns#"
   xmlns:rdf="http://www.w3.org/1999/02/22-rdf-syntax-ns#"
   xmlns:svg="http://www.w3.org/2000/svg"
   xmlns="http://www.w3.org/2000/svg"
   xmlns:sodipodi="http://sodipodi.sourceforge.net/DTD/sodipodi-0.dtd"
   xmlns:inkscape="http://www.inkscape.org/namespaces/inkscape"
   width="1024"
   height="1024"
   viewBox="0 0 1024 1024"
   id="svg4160"
   version="1.1"
   inkscape:version="0.91 r13725"
   sodipodi:docname="digits.svg">
  <defs
     id="defs4162">
    <filter
       style="color-interpolation-filters:sRGB;"
       inkscape:label="Drop Shadow"
       id="filter7655">
      <feFlood
         flood-opacity="0.498039"
         flood-color="rgb(62,62,62)"
         result="flood"
         id="feFlood7657" />
      <feComposite
         in="flood"
         in2="SourceGraphic"
         operator="in"
         result="composite1"
         id="feComposite7659" />
      <feGaussianBlur
         in="composite1"
         stdDeviation="6.25"
         result="blur"
         id="feGaussianBlur7661" />
      <feOffset
         dx="4.7"
         dy="3.9"
         result="offset"
         id="feOffset7663" />
      <feComposite
         in="SourceGraphic"
         in2="offset"
         operator="over"
         result="composite2"
         id="feComposite7665" />
    </filter>
    <filter
       style="color-interpolation-filters:sRGB;"
       inkscape:label="Drop Shadow"
       id="filter7667">
      <feFlood
         flood-opacity="0.498039"
         flood-color="rgb(62,62,62)"
         result="flood"
         id="feFlood7669" />
      <feComposite
         in="flood"
         in2="SourceGraphic"
         operator="in"
         result="composite1"
         id="feComposite7671" />
      <feGaussianBlur
         in="composite1"
         stdDeviation="6.25"
         result="blur"
         id="feGaussianBlur7673" />
      <feOffset
         dx="4.7"
         dy="3.9"
         result="offset"
         id="feOffset7675" />
      <feComposite
         in="SourceGraphic"
         in2="offset"
         operator="over"
         result="composite2"
         id="feComposite7677" />
    </filter>
    <filter
       style="color-interpolation-filters:sRGB;"
       inkscape:label="Drop Shadow"
       id="filter7679">
      <feFlood
         flood-opacity="0.498039"
         flood-color="rgb(62,62,62)"
         result="flood"
         id="feFlood7681" />
      <feComposite
         in="flood"
         in2="SourceGraphic"
         operator="in"
         result="composite1"
         id="feComposite7683" />
      <feGaussianBlur
         in="composite1"
         stdDeviation="6.25"
         result="blur"
         id="feGaussianBlur7685" />
      <feOffset
         dx="4.7"
         dy="3.9"
         result="offset"
         id="feOffset7687" />
      <feComposite
         in="SourceGraphic"
         in2="offset"
         operator="over"
         result="composite2"
         id="feComposite7689" />
    </filter>
    <filter
       style="color-interpolation-filters:sRGB;"
       inkscape:label="Drop Shadow"
       id="filter7691">
      <feFlood
         flood-opacity="0.498039"
         flood-color="rgb(62,62,62)"
         result="flood"
         id="feFlood7693" />
      <feComposite
         in="flood"
         in2="SourceGraphic"
         operator="in"
         result="composite1"
         id="feComposite7695" />
      <feGaussianBlur
         in="composite1"
         stdDeviation="6.25"
         result="blur"
         id="feGaussianBlur7697" />
      <feOffset
         dx="4.7"
         dy="3.9"
         result="offset"
         id="feOffset7699" />
      <feComposite
         in="SourceGraphic"
         in2="offset"
         operator="over"
         result="composite2"
         id="feComposite7701" />
    </filter>
    <clipPath
       clipPathUnits="userSpaceOnUse"
       id="clipPath7836">
      <rect
         style="opacity:1;fill:#e8f5e9;fill-opacity:1;fill-rule:nonzero;stroke:none;stroke-width:10;stroke-linecap:butt;stroke-linejoin:miter;stroke-miterlimit:4;stroke-dasharray:none;stroke-opacity:1"
         id="rect7838"
         width="1024"
         height="1024"
         x="0"
         y="0"
         ry="166.53174" />
    </clipPath>
    <filter
       style="color-interpolation-filters:sRGB;"
       inkscape:label="Drop Shadow"
       id="filter7961">
      <feFlood
         flood-opacity="0.498039"
         flood-color="rgb(62,62,62)"
         result="flood"
         id="feFlood7963" />
      <feComposite
         in="flood"
         in2="SourceGraphic"
         operator="in"
         result="composite1"
         id="feComposite7965" />
      <feGaussianBlur
         in="composite1"
         stdDeviation="6.3"
         result="blur"
         id="feGaussianBlur7967" />
      <feOffset
         dx="4.7"
         dy="3.9"
         result="offset"
         id="feOffset7969" />
      <feComposite
         in="SourceGraphic"
         in2="offset"
         operator="over"
         result="composite2"
         id="feComposite7971" />
    </filter>
  </defs>
  <sodipodi:namedview
     id="base"
     pagecolor="#ffffff"
     bordercolor="#666666"
     borderopacity="1.0"
     inkscape:pageopacity="0.0"
     inkscape:pageshadow="2"
     inkscape:zoom="0.70710678"
     inkscape:cx="546.18006"
     inkscape:cy="469.14516"
     inkscape:document-units="px"
     inkscape:current-layer="g7807"
     showgrid="false"
     units="px"
     inkscape:window-width="1920"
     inkscape:window-height="1017"
     inkscape:window-x="1272"
     inkscape:window-y="-8"
     inkscape:window-maximized="1" />
  <metadata
     id="metadata4165">
    <rdf:RDF>
      <cc:Work
         rdf:about="">
        <dc:format>image/svg+xml</dc:format>
        <dc:type
           rdf:resource="http://purl.org/dc/dcmitype/StillImage" />
        <dc:title></dc:title>
      </cc:Work>
    </rdf:RDF>
  </metadata>
  <g
     inkscape:label="Layer 1"
     inkscape:groupmode="layer"
     id="layer1"
     transform="translate(0,-28.362161)"
     style="display:inline" />
  <g
     inkscape:groupmode="layer"
     id="layer2"
     inkscape:label="Layer 2"
     style="display:inline">
    <g
       id="g7807"
       clip-path="url(#clipPath7836)">
      <rect
         y="540.36218"
         x="0"
         height="512"
         width="512"
         id="rect4708"
         style="display:inline;opacity:1;fill:#00796b;fill-opacity:1;stroke:none;stroke-width:10;stroke-linecap:butt;stroke-linejoin:miter;stroke-miterlimit:4;stroke-dasharray:none;stroke-opacity:1"
         transform="translate(0,-28.362161)" />
      <rect
         y="28.362162"
         x="0"
         height="512"
         width="512"
         id="rect4708-5"
         style="display:inline;opacity:1;fill:#00897b;fill-opacity:1;stroke:none;stroke-width:10;stroke-linecap:butt;stroke-linejoin:miter;stroke-miterlimit:4;stroke-dasharray:none;stroke-opacity:1"
         transform="translate(0,-28.362161)" />
      <rect
         y="28.362162"
         x="512"
         height="512"
         width="512"
         id="rect4708-5-4"
         style="display:inline;opacity:1;fill:#00695c;fill-opacity:1;stroke:none;stroke-width:10;stroke-linecap:butt;stroke-linejoin:miter;stroke-miterlimit:4;stroke-dasharray:none;stroke-opacity:1"
         transform="translate(0,-28.362161)" />
      <rect
         y="540.36218"
         x="512"
         height="512"
         width="512"
         id="rect4708-5-4-4"
         style="display:inline;opacity:1;fill:#009688;fill-opacity:1;stroke:none;stroke-width:10;stroke-linecap:butt;stroke-linejoin:miter;stroke-miterlimit:4;stroke-dasharray:none;stroke-opacity:1"
         transform="translate(0,-28.362161)" />
      <path
         inkscape:connector-curvature="0"
         id="path6271"
         d="m 693.14839,451.61833 c -21.92501,-4.77522 -38.91492,-22.66316 -45.07755,-47.46016 -5.49238,-22.10007 -5.55027,-48.63877 -0.16029,-73.48108 2.17296,-10.01515 7.38564,-28.05547 8.10651,-28.05547 0.98183,0 5.6387,9.35435 8.12829,16.32749 2.12397,5.94904 2.18276,16.232 0.19255,33.67544 -0.78966,6.92099 -0.61876,23.29521 0.32485,31.12427 2.362,19.59739 5.5521,29.35914 12.32286,37.70821 8.41896,10.38147 22.69092,14.26098 38.03036,10.3377 12.95927,-3.31451 39.39507,-17.61926 54.01798,-29.2298 9.75866,-7.74834 19.41918,-11.35305 33.6457,-12.55449 l 6.9238,-0.58472 -7.89267,8.73263 c -12.59144,13.93139 -30.8873,28.97854 -45.06769,37.06525 -6.8845,3.92605 -22.21667,10.84063 -26.31578,11.86802 -0.89205,0.22358 -5.27918,1.34533 -9.74921,2.49276 -9.38307,2.4086 -21.56283,3.31175 -27.42971,2.03395 z m 132.57696,0.27322 c -5.8015,-0.56619 -16.3344,-3.37162 -22.85813,-6.08824 -7.74558,-3.22542 -22.85957,-10.85359 -22.85338,-11.53431 0.013,-1.42526 6.83583,-7.56713 9.77782,-8.80189 4.99248,-2.09533 7.98157,-1.73706 19.17109,2.29787 8.4718,3.05496 11.9307,3.74617 20.8262,4.16185 9.3358,0.43624 11.4215,0.21233 16.7112,-1.79407 14.4214,-5.46999 21.7267,-17.52511 25.8194,-42.60649 0.5768,-3.53496 2.0039,-7.97968 3.1714,-9.87715 2.0942,-3.40373 7.7586,-6.78766 13.6122,-8.13198 l 2.9308,-0.6731 -0.5802,13.57519 c -0.8228,19.25092 -4.436,32.47688 -11.9328,43.679 -11.4665,17.134 -33.6311,27.76125 -53.7956,25.79332 z m -89.87586,-52.46969 c -5.3527,-5.08949 -8.39827,-8.6986 -7.82568,-9.27376 0.57258,-0.57515 6.55332,-0.11717 15.36772,1.17678 7.93667,1.16511 14.62226,2.11838 14.85685,2.11838 0.2346,0 0.42654,0.84157 0.42654,1.87015 0,1.76083 -3.43929,4.99093 -10.84085,10.18145 l -3.2215,2.25916 -8.76308,-8.33216 z m 24.85726,-19.37878 c -18.91762,-0.64855 -25.44832,-1.15565 -37.58886,-2.91869 -3.6319,-0.52743 -8.66068,-1.20628 -11.17507,-1.50856 -2.51439,-0.30228 -8.91466,-1.23113 -14.22281,-2.06412 -5.30816,-0.83299 -13.00924,-2.04141 -17.11352,-2.68539 l -7.46232,-1.17089 0.71836,-9.30078 c 0.39509,-5.11545 0.88854,-9.48476 1.09654,-9.70961 0.208,-0.22484 13.07176,1.72779 28.58613,4.33919 36.63641,6.16669 48.24446,7.13903 77.47985,6.49007 26.3546,-0.58501 37.6062,-1.97813 58.9459,-7.2984 34.3568,-8.56562 60.0202,-21.75175 79.6998,-40.95065 15.3052,-14.93135 18.9163,-32.33671 9.633,-46.4309 -7.4479,-11.30773 -31.6993,-29.14104 -55.6753,-40.94106 -11.887,-5.85027 -15.8643,-8.39452 -21.561,-13.79263 -7.6233,-7.22368 -14.6331,-17.21566 -11.3981,-16.24724 1.0002,0.29941 4.8623,1.23819 8.5824,2.08618 20.7748,4.73555 47.2217,15.85812 63.7163,26.79667 11.3687,7.53927 24.5365,20.40649 30.1002,29.41313 12.8781,20.84739 12.3816,43.48588 -1.3877,63.26901 -3.871,5.56175 -16.3659,18.80494 -17.7853,18.85041 -0.485,0.0155 -2.4069,1.37325 -4.2708,3.01714 -5.8112,5.1252 -30.2315,18.48832 -41.0716,22.47489 -1.9556,0.71921 -5.0201,1.95401 -6.81,2.74399 -5.9467,2.62469 -27.0326,8.49051 -38.3319,10.66348 -22.4199,4.31153 -44.99049,5.82488 -72.7042,4.87476 z M 627.54764,348.21107 c -30.15637,-27.75666 -34.38309,-32.45658 -39.61781,-44.05325 -5.40784,-11.98017 -5.73677,-25.68332 -0.92651,-38.59752 8.20991,-22.04127 34.56998,-44.17534 68.84624,-57.8089 10.00893,-3.9811 40.85453,-12.71938 40.85453,-11.57372 0,0.30308 -2.0796,3.69323 -4.62132,7.53367 -7.58063,11.454 -15.3304,17.20531 -29.5155,21.90426 -10.66394,3.53253 -27.25682,13.19681 -38.91154,22.66346 -7.53017,6.11645 -13.56474,13.36167 -17.07927,20.50571 -3.11538,6.33268 -3.68717,8.54355 -3.69488,14.28655 -0.0182,13.57812 5.11667,22.91117 20.86227,37.91872 8.86598,8.4504 10.27201,10.25443 10.95675,14.05832 0.67584,3.75438 -0.83194,15.72342 -2.14715,17.04452 -0.20734,0.20827 -2.45995,-1.53855 -5.00581,-3.88182 z m 75.21348,-3.67179 c -5.78285,-1.138 -12.94841,-5.09295 -16.02909,-8.8471 -3.65075,-4.44885 -31.67564,-70.10957 -35.36572,-82.8599 -2.08251,-7.19568 -1.0462,-9.52685 5.77965,-13.00127 2.87048,-1.4611 5.35785,-2.51087 5.5275,-2.33282 0.49319,0.51763 11.93597,25.81322 17.22644,38.08104 2.66245,6.17383 6.80773,15.58764 9.21173,20.91959 2.404,5.33194 6.74843,15.20497 9.65428,21.94006 5.58324,12.94065 9.77094,22.2952 11.30649,25.25657 1.0306,1.98757 -0.564,2.17161 -7.31128,0.84383 z M 827.03865,342.316 c 5.4929,-12.98894 45.7906,-103.59962 46.304,-104.11589 0.3512,-0.35324 3.4365,0.63213 6.8561,2.18973 l 6.2176,2.832 -1.8257,8.52519 c -3.487,16.28274 -13.5041,43.45772 -21.8178,59.18873 -1.3785,2.60838 -2.5064,5.23475 -2.5064,5.83639 0,1.97719 -9.9089,17.93466 -12.8595,20.70906 -4.3036,4.04664 -10.5968,6.96564 -16.5428,7.673 l -5.2919,0.62956 1.4664,-3.46777 z m 39.511,-8.95917 c 0.1761,-0.43366 3.0594,-8.23464 6.4072,-17.33549 4.2547,-11.56618 6.3031,-15.99655 6.8049,-14.71825 1.4264,3.63301 6.9185,22.03703 6.9185,23.18381 0,0.64606 -4.6015,3.08349 -10.2255,5.41652 -5.6239,2.33303 -10.0813,3.88707 -9.9051,3.45341 z m -108.4248,-3.62381 c -22.53271,-5.33035 -38.59139,-28.62169 -35.05076,-50.83727 2.35178,-14.75627 12.2033,-27.76435 26.25612,-34.66896 6.48762,-3.18757 7.34968,-3.34347 18.48794,-3.34347 10.96419,0 12.08932,0.19448 18.28647,3.16078 12.47658,5.97198 21.71403,16.57076 25.57723,29.34658 8.2949,27.43153 -12.58019,56.01045 -41.83187,57.26967 -3.63189,0.15634 -8.9082,-0.26096 -11.72513,-0.92733 z m 73.6959,-89.55065 c -35.20571,-51.79989 -47.76891,-66.34084 -71.114,-82.30903 -28.09906,-19.21992 -57.17401,-26.57088 -73.14589,-18.4933 -6.35548,3.2142 -12.77538,9.82652 -16.51879,17.01391 -4.21945,8.10138 -5.37428,12.07739 -7.49723,25.81247 -0.30363,1.9644 -1.36155,5.43871 -2.35094,7.72069 -1.65367,3.8141 -2.42919,4.37996 -9.60669,7.00947 -4.29428,1.57323 -8.01184,2.65547 -8.26122,2.40496 -0.70642,-0.70958 2.39443,-24.98716 4.20883,-32.95237 0.89495,-3.9288 3.67286,-11.44175 6.17313,-16.69543 11.44547,-24.0497 34.42278,-35.95329 61.28262,-31.74796 14.7005,2.30159 36.1933,11.49077 52.11036,22.27962 19.33914,13.10839 41.50462,34.90298 56.70622,55.75734 31.6269,43.3876 30.4718,41.4419 30.5751,51.5012 0.053,5.15921 -0.5269,8.24499 -2.2831,12.14816 -1.2947,2.87772 -2.6154,5.22809 -2.9349,5.22304 -0.3195,-0.005 -8.124,-11.10778 -17.3435,-24.67277 z M 683.57019,258.193 c -3.59224,-9.64414 -2.57952,-17.88053 3.21046,-26.11078 1.826,-2.59558 14.85967,-20.13296 28.96372,-38.97196 l 25.64373,-34.25273 7.08151,4.78629 c 3.89484,2.63245 7.09863,5.14328 7.11954,5.5796 0.0209,0.43633 -3.46471,5.67828 -7.74584,11.64877 -13.92657,19.42213 -30.74944,42.63414 -31.81334,43.89569 -0.57167,0.67788 -1.0394,1.47753 -1.0394,1.77699 0,0.61002 -6.98128,9.97097 -8.02976,10.76681 -0.36971,0.28063 -2.19062,2.92109 -4.04649,5.86769 -1.85586,2.9466 -3.75299,5.35746 -4.21584,5.35746 -0.46285,0 -1.10617,0.83747 -1.42959,1.86104 -0.32342,1.02358 -1.39667,2.74562 -2.38501,3.82675 -0.98833,1.08115 -3.09459,3.68776 -4.68058,5.79247 -1.58597,2.10472 -3.25366,3.82676 -3.70594,3.82676 -0.45229,0 -1.76951,-2.54289 -2.92717,-5.65085 z m 68.75526,-52.25387 c -4.33034,-0.19129 -7.87335,-0.69779 -7.87335,-1.12556 0,-0.42776 1.29025,-2.8193 2.86721,-5.31453 6.02992,-9.54112 16.16914,-14.22352 25.52231,-11.78646 7.48135,1.94933 12.62948,6.37192 18.83293,16.17878 l 1.77516,2.80629 -16.62546,-0.20537 c -9.14401,-0.11295 -20.16847,-0.36187 -24.4988,-0.55315 z m 133.5905,-8.303 c -9.5798,-3.32426 -12.3013,-7.54817 -14.8727,-23.08322 -3.7942,-22.92216 -14.9311,-35.69463 -33.127,-37.99187 -7.9877,-1.00846 -17.6193,0.097 -25.2955,2.90328 -12.28195,4.48999 -16.43601,5.28211 -20.864,3.97846 -3.65087,-1.07486 -11.74762,-7.46424 -11.74762,-9.2704 0,-1.07321 22.2177,-11.88826 28.95362,-14.09392 9.4202,-3.08464 20.2555,-4.2722 28.463,-3.11958 9.0242,1.2673 12.6342,2.42813 20.8307,6.69839 17.6367,9.18841 27.5973,24.61798 31.8675,49.36494 1.8583,10.76919 3.0077,26.54353 1.9307,26.49885 -0.4415,-0.0183 -3.204,-0.86654 -6.1387,-1.88493 z"
         style="display:inline;fill:#e8f5e9;fill-opacity:1;filter:url(#filter7655)"
         transform="translate(0,-28.362161)" />
      <text
         sodipodi:linespacing="125%"
         id="text4776"
         y="436.71423"
         x="88.533134"
         style="font-style:normal;font-variant:normal;font-weight:normal;font-stretch:normal;font-size:449.91644287px;line-height:125%;font-family:'Times New Roman';-inkscape-font-specification:'Times New Roman, ';letter-spacing:0px;word-spacing:0px;display:inline;fill:#e8f5e9;fill-opacity:1;stroke:none;stroke-width:1px;stroke-linecap:butt;stroke-linejoin:miter;stroke-opacity:1;filter:url(#filter7667)"
         xml:space="preserve"
         transform="translate(0,-28.362161)"><tspan
           y="436.71423"
           x="88.533134"
           id="tspan4778"
           sodipodi:role="line">Ω</tspan></text>
      <text
         sodipodi:linespacing="125%"
         id="text4776-0"
         y="927.85144"
         x="626.95874"
         style="font-style:normal;font-variant:normal;font-weight:normal;font-stretch:normal;font-size:611.32806396px;line-height:125%;font-family:'Times New Roman';-inkscape-font-specification:'Times New Roman, ';letter-spacing:0px;word-spacing:0px;display:inline;fill:#e8f5e9;fill-opacity:1;stroke:none;stroke-width:1px;stroke-linecap:butt;stroke-linejoin:miter;stroke-opacity:1;filter:url(#filter7679)"
         xml:space="preserve"
         transform="translate(0,-28.362161)"><tspan
           y="927.85144"
           x="626.95874"
           id="tspan4778-8"
           sodipodi:role="line"><tspan
             id="tspan5704"
             style="font-style:italic;font-variant:normal;font-weight:normal;font-stretch:normal;font-family:'Times New Roman';-inkscape-font-specification:'Times New Roman, Italic';fill:#e8f5e9;fill-opacity:1">e</tspan></tspan></text>
      <g
         id="g7921"
         transform="matrix(0.72464605,0,0,0.72464605,82.308504,594.08495)">
        <g
           id="g7947"
           style="filter:url(#filter7961)">
          <rect
             style="fill:#e8f5e9;fill-opacity:1;stroke-linejoin:round"
             x="-1.90735e-006"
             y="4.9591101e-005"
             width="479.383"
             height="32.000099"
             id="rect7891" />
          <rect
             style="fill:#e8f5e9;fill-opacity:1;stroke-linejoin:round"
             x="351.383"
             y="31.9998"
             width="32"
             height="272.00201"
             id="rect7893" />
          <circle
             style="fill:none;stroke:#e8f5e9;stroke-width:32;stroke-linejoin:round;stroke-opacity:1"
             r="64"
             cx="175.383"
             cy="144.002"
             id="ellipse7895" />
          <rect
             style="fill:#e8f5e9;fill-opacity:1;stroke-linejoin:round"
             x="95.3834"
             y="144.002"
             width="32"
             height="208"
             id="rect7897" />
          <rect
             style="fill:#e8f5e9;fill-opacity:1;stroke-linejoin:round"
             x="223.383"
             y="144.002"
             width="32"
             height="160"
             id="rect7899" />
          <path
             style="fill:#e8f5e9;fill-opacity:1;stroke-linejoin:round"
             inkscape:connector-curvature="0"
             d="m 111.383,400.002 32,-48 -63.9996,0 31.9996,48 z"
             id="path7901" />
          <rect
             style="fill:#e8f5e9;fill-opacity:1;stroke:#e8f5e9;stroke-linejoin:round;stroke-opacity:1"
             x="159.383"
             y="32.002201"
             width="32"
             height="112"
             id="rect7903" />
          <circle
             style="fill:none;stroke:#e8f5e9;stroke-width:32;stroke-linejoin:round;stroke-opacity:1"
             r="64"
             cx="303.383"
             cy="304.00201"
             id="ellipse7905" />
          <circle
             style="fill:#ffffff;fill-opacity:1;stroke:#e8f5e9;stroke-width:32;stroke-linejoin:round;stroke-opacity:1"
             r="16"
             cx="175.383"
             cy="144.002"
             id="ellipse7907" />
          <path
             style="fill:#ffffff;fill-opacity:1;stroke:#e8f5e9;stroke-width:32;stroke-linejoin:round;stroke-opacity:1"
             inkscape:connector-curvature="0"
             d="m 303.383,288.002 c 8.837,0 16,7.164 16,16 0,8.837 -7.163,16 -16,16 -8.836,0 -16,-7.163 -16,-16 0,-8.836 7.164,-16 16,-16 z"
             id="path7909" />
          <rect
             style="fill:#e8f5e9;fill-opacity:1;stroke-linejoin:round"
             x="287.383"
             y="304.00299"
             width="32"
             height="112"
             id="rect7911" />
          <path
             style="fill:#e8f5e9;fill-opacity:1;stroke-linejoin:round"
             inkscape:connector-curvature="0"
             d="m 351.383,400 -96,0 -16,80 128,0 -16,-80 z"
             id="path7913" />
        </g>
      </g>
    </g>
  </g>
  <g
     inkscape:groupmode="layer"
     id="layer3"
     inkscape:label="Layer 3"
     style="display:inline" />
</svg>
